<mxfile host="app.diagrams.net" modified="2020-10-26T08:39:34.797Z" agent="5.0 (Windows NT 10.0; Win64; x64) AppleWebKit/537.36 (KHTML, like Gecko) Chrome/86.0.4240.111 Safari/537.36" etag="ykGUDumtXCqjpnZXYb7R" version="13.8.2" type="github">
  <diagram id="ffh61bQLtAY9-tfay8JP" name="Page-1">
    <mxGraphModel dx="868" dy="482" grid="1" gridSize="10" guides="1" tooltips="1" connect="1" arrows="1" fold="1" page="1" pageScale="1" pageWidth="827" pageHeight="1169" math="0" shadow="0">
      <root>
        <mxCell id="0" />
        <mxCell id="1" parent="0" />
        <mxCell id="5Hmro1yjzFgWVa_IqAWr-1" value="" style="endArrow=none;html=1;endSize=19;strokeWidth=5;" edge="1" parent="1">
          <mxGeometry width="50" height="50" relative="1" as="geometry">
            <mxPoint x="280" y="440" as="sourcePoint" />
            <mxPoint x="280" y="80" as="targetPoint" />
          </mxGeometry>
        </mxCell>
        <mxCell id="5Hmro1yjzFgWVa_IqAWr-3" value="" style="endArrow=none;html=1;endSize=19;strokeWidth=5;" edge="1" parent="1">
          <mxGeometry width="50" height="50" relative="1" as="geometry">
            <mxPoint x="440" y="440" as="sourcePoint" />
            <mxPoint x="440" y="80" as="targetPoint" />
          </mxGeometry>
        </mxCell>
        <mxCell id="5Hmro1yjzFgWVa_IqAWr-4" value="&lt;font style=&quot;font-size: 20px&quot;&gt;Reader&lt;/font&gt;" style="ellipse;whiteSpace=wrap;html=1;" vertex="1" parent="1">
          <mxGeometry x="130" y="50" width="120" height="80" as="geometry" />
        </mxCell>
        <mxCell id="5Hmro1yjzFgWVa_IqAWr-5" value="&lt;span style=&quot;font-size: 20px&quot;&gt;Tag&lt;/span&gt;" style="ellipse;whiteSpace=wrap;html=1;" vertex="1" parent="1">
          <mxGeometry x="470" y="50" width="120" height="80" as="geometry" />
        </mxCell>
        <mxCell id="5Hmro1yjzFgWVa_IqAWr-6" value="" style="endArrow=classic;html=1;strokeWidth=5;" edge="1" parent="1">
          <mxGeometry width="50" height="50" relative="1" as="geometry">
            <mxPoint x="280" y="110" as="sourcePoint" />
            <mxPoint x="440" y="160" as="targetPoint" />
          </mxGeometry>
        </mxCell>
        <mxCell id="5Hmro1yjzFgWVa_IqAWr-8" value="&lt;font style=&quot;font-size: 17px&quot;&gt;Wake up signal&lt;/font&gt;" style="text;html=1;align=center;verticalAlign=middle;resizable=0;points=[];autosize=1;" vertex="1" parent="1">
          <mxGeometry x="298.5" y="90" width="130" height="20" as="geometry" />
        </mxCell>
        <mxCell id="5Hmro1yjzFgWVa_IqAWr-10" value="" style="endArrow=classic;html=1;strokeWidth=5;" edge="1" parent="1">
          <mxGeometry width="50" height="50" relative="1" as="geometry">
            <mxPoint x="440" y="180" as="sourcePoint" />
            <mxPoint x="275" y="240" as="targetPoint" />
          </mxGeometry>
        </mxCell>
        <mxCell id="5Hmro1yjzFgWVa_IqAWr-11" value="&lt;font style=&quot;font-size: 17px&quot;&gt;ID&lt;/font&gt;" style="text;html=1;align=center;verticalAlign=middle;resizable=0;points=[];autosize=1;" vertex="1" parent="1">
          <mxGeometry x="340" y="170" width="30" height="20" as="geometry" />
        </mxCell>
        <mxCell id="5Hmro1yjzFgWVa_IqAWr-13" value="" style="endArrow=classic;html=1;strokeWidth=5;" edge="1" parent="1">
          <mxGeometry width="50" height="50" relative="1" as="geometry">
            <mxPoint x="280" y="260" as="sourcePoint" />
            <mxPoint x="440" y="300" as="targetPoint" />
          </mxGeometry>
        </mxCell>
        <mxCell id="5Hmro1yjzFgWVa_IqAWr-14" value="&lt;font style=&quot;font-size: 17px&quot;&gt;Queue Index&lt;/font&gt;" style="text;html=1;align=center;verticalAlign=middle;resizable=0;points=[];autosize=1;" vertex="1" parent="1">
          <mxGeometry x="308.5" y="250" width="110" height="20" as="geometry" />
        </mxCell>
        <mxCell id="5Hmro1yjzFgWVa_IqAWr-15" value="" style="endArrow=classic;html=1;strokeWidth=5;" edge="1" parent="1">
          <mxGeometry width="50" height="50" relative="1" as="geometry">
            <mxPoint x="440" y="340" as="sourcePoint" />
            <mxPoint x="280" y="390" as="targetPoint" />
          </mxGeometry>
        </mxCell>
        <mxCell id="5Hmro1yjzFgWVa_IqAWr-16" value="&lt;font style=&quot;font-size: 17px&quot;&gt;Data&lt;/font&gt;" style="text;html=1;align=center;verticalAlign=middle;resizable=0;points=[];autosize=1;" vertex="1" parent="1">
          <mxGeometry x="335" y="330" width="50" height="20" as="geometry" />
        </mxCell>
      </root>
    </mxGraphModel>
  </diagram>
</mxfile>
